<?xml version="1.0" encoding="iso-8859-1"?>
<!-- Generator: Adobe Illustrator 19.0.0, SVG Export Plug-In . SVG Version: 6.00 Build 0)  -->
<svg version="1.1" id="Layer_1" xmlns="http://www.w3.org/2000/svg" xmlns:xlink="http://www.w3.org/1999/xlink" x="0px" y="0px"
	 viewBox="0 0 512 512" style="enable-background:new 0 0 512 512;" xml:space="preserve">
<g>
	<g>
		<path d="M437.02,74.98C388.667,26.628,324.38,0,256,0S123.333,26.628,74.98,74.98C26.628,123.333,0,187.62,0,256
			s26.628,132.667,74.98,181.02C123.333,485.372,187.62,512,256,512s132.667-26.628,181.02-74.98
			C485.372,388.667,512,324.38,512,256S485.372,123.333,437.02,74.98z M256,478.609c-122.746,0-222.609-99.862-222.609-222.609
			S133.254,33.391,256,33.391S478.609,133.254,478.609,256S378.746,478.609,256,478.609z"/>
	</g>
</g>
<g>
	<g>
		<rect x="239.304" y="66.445" width="33.391" height="54.973"/>
	</g>
</g>
<g>
	<g>
		<rect x="144.041" y="97.397" transform="matrix(0.809 -0.5878 0.5878 0.809 -42.7066 118.3336)" width="33.391" height="54.973"/>
	</g>
</g>
<g>
	<g>
		<rect x="85.16" y="178.422" transform="matrix(0.309 -0.9511 0.9511 0.309 -125.4502 239.1576)" width="33.392" height="54.975"/>
	</g>
</g>
<g>
	<g>
		<rect x="74.387" y="289.382" transform="matrix(0.9511 -0.309 0.309 0.9511 -89.5896 46.456)" width="54.975" height="33.392"/>
	</g>
</g>
<g>
	<g>
		<rect x="393.426" y="278.583" transform="matrix(0.309 -0.9511 0.9511 0.309 -7.6944 601.5519)" width="33.393" height="54.975"/>
	</g>
</g>
<g>
	<g>
		<rect x="382.634" y="189.215" transform="matrix(0.9511 -0.309 0.309 0.9511 -43.5552 136.799)" width="54.975" height="33.393"/>
	</g>
</g>
<g>
	<g>
		<rect x="323.78" y="108.202" transform="matrix(0.5878 -0.809 0.809 0.5878 43.7479 335.6581)" width="54.973" height="33.391"/>
	</g>
</g>
<g>
	<g>
		<path d="M169.275,335.566v102.047h173.449V335.566H169.275z M309.333,404.222H202.666v-35.265h0h106.666V404.222z"/>
	</g>
</g>
<g>
	<g>
		<path d="M272.696,233.859v-82.237h-33.391v82.237c-15.303,6.516-26.06,21.704-26.06,39.359c0,23.575,19.18,42.755,42.755,42.755
			s42.755-19.18,42.755-42.755C298.755,255.564,287.999,240.376,272.696,233.859z M256,282.583c-5.163,0-9.364-4.201-9.364-9.364
			c0-5.163,4.201-9.364,9.364-9.364c5.163,0,9.364,4.201,9.364,9.364C265.364,278.382,261.163,282.583,256,282.583z"/>
	</g>
</g>
<g>
</g>
<g>
</g>
<g>
</g>
<g>
</g>
<g>
</g>
<g>
</g>
<g>
</g>
<g>
</g>
<g>
</g>
<g>
</g>
<g>
</g>
<g>
</g>
<g>
</g>
<g>
</g>
<g>
</g>
</svg>
